<?xml version="1.0" ?><svg xmlns="http://www.w3.org/2000/svg" xmlns:xlink="http://www.w3.org/1999/xlink" version="1.1" id="Layer_1" width="128px" height="128px" viewBox="0 0 128 128" enable-background="new 0 0 128 128" xml:space="preserve"><path fill="none" stroke="#000000" stroke-width="7" stroke-miterlimit="10" d="M122.228,64c0,57.956-0.335,58.228-58.228,58.228  S5.772,122.053,5.772,64S5.884,5.772,64,5.772S122.228,6.044,122.228,64z"/><path fill="none" stroke="#000000" stroke-width="8" stroke-miterlimit="10" d="M99.879,47.966  c-0.801-3.205-6.725-26.144-34.972-26.144c-28.304,0-37.478,21.199-36.747,45.118c0.658,21.55,11.562,39.237,36.404,39.237  c18.03,0,31.223-10.16,31.223-23.639c0-10.789-5.506-16.311-14.911-19.375c-15.283-4.979-28.75-1.009-30.05,8.414  c-1.03,7.469,5.838,13.422,15.025,12.707c11.959-0.931,15.282-11.648,15.282-21.006c0-15.282-8.328-19.604-14.939-19.947  c-11.232-0.583-15.226,6.955-15.226,6.955"/></svg>